<?xml version="1.0" encoding="UTF-8" standalone="no"?>
<!-- Created with Inkscape (http://www.inkscape.org/) -->

<svg
   xmlns:dc="http://purl.org/dc/elements/1.1/"
   xmlns:cc="http://creativecommons.org/ns#"
   xmlns:rdf="http://www.w3.org/1999/02/22-rdf-syntax-ns#"
   xmlns:svg="http://www.w3.org/2000/svg"
   xmlns="http://www.w3.org/2000/svg"
   xmlns:sodipodi="http://sodipodi.sourceforge.net/DTD/sodipodi-0.dtd"
   xmlns:inkscape="http://www.inkscape.org/namespaces/inkscape"
   width="210mm"
   height="297mm"
   id="svg2"
   version="1.1"
   inkscape:version="0.48.2 r9819"
   sodipodi:docname="Documento nuevo 1">
  <defs
     id="defs4" />
  <sodipodi:namedview
     id="base"
     pagecolor="#ffffff"
     bordercolor="#666666"
     borderopacity="1.0"
     inkscape:pageopacity="0.0"
     inkscape:pageshadow="2"
     inkscape:zoom="1.7807432"
     inkscape:cx="330"
     inkscape:cy="611.42857"
     inkscape:document-units="px"
     inkscape:current-layer="layer1"
     showgrid="false"
     inkscape:window-width="504"
     inkscape:window-height="455"
     inkscape:window-x="482"
     inkscape:window-y="283"
     inkscape:window-maximized="0" />
  <metadata
     id="metadata7">
    <rdf:RDF>
      <cc:Work
         rdf:about="">
        <dc:format>image/svg+xml</dc:format>
        <dc:type
           rdf:resource="http://purl.org/dc/dcmitype/StillImage" />
        <dc:title></dc:title>
      </cc:Work>
    </rdf:RDF>
  </metadata>
  <g
     inkscape:label="Capa 1"
     inkscape:groupmode="layer"
     id="layer1">
    <path
       sodipodi:type="arc"
       style="fill:#9c6000;fill-opacity:1;fill-rule:evenodd;stroke:#000000;stroke-width:1;stroke-miterlimit:4;stroke-opacity:0.57317074;stroke-dasharray:none"
       id="path2987"
       sodipodi:cx="304.28571"
       sodipodi:cy="422.36218"
       sodipodi:rx="161.42857"
       sodipodi:ry="130"
       d="m 465.71428,422.36218 a 161.42857,130 0 1 1 -322.85715,0 161.42857,130 0 1 1 322.85715,0 z" />
    <path
       sodipodi:type="arc"
       style="fill:#9c6000;fill-opacity:1;fill-rule:evenodd;stroke:#000000;stroke-width:1;stroke-miterlimit:4;stroke-opacity:0.57317074;stroke-dasharray:none"
       id="path2989"
       sodipodi:cx="224.28572"
       sodipodi:cy="533.79077"
       sodipodi:rx="30"
       sodipodi:ry="32.857143"
       d="m 254.28572,533.79077 a 30,32.857143 0 1 1 -60,0 30,32.857143 0 1 1 60,0 z"
       transform="translate(-17.408461,1.6846898)" />
    <path
       transform="translate(173.86264,6.4257084)"
       sodipodi:type="arc"
       style="fill:#9c6000;fill-opacity:1;fill-rule:evenodd;stroke:#000000;stroke-width:1;stroke-miterlimit:4;stroke-opacity:0.57317074;stroke-dasharray:none"
       id="path2989-1"
       sodipodi:cx="224.28572"
       sodipodi:cy="533.79077"
       sodipodi:rx="30"
       sodipodi:ry="32.857143"
       d="m 254.28572,533.79077 a 30,32.857143 0 1 1 -60,0 30,32.857143 0 1 1 60,0 z" />
    <g
       id="g3103"
       transform="translate(0.56156329,25.270347)">
      <path
         d="m 358.83894,430.71164 c 0,14.26657 -23.75923,25.83191 -53.06773,25.83191 -29.3085,0 -53.06773,-11.56534 -53.06773,-25.83191 0,-14.26657 23.75923,-25.83191 53.06773,-25.83191 29.3085,0 53.06773,11.56534 53.06773,25.83191 z"
         sodipodi:ry="25.831911"
         sodipodi:rx="53.06773"
         sodipodi:cy="430.71164"
         sodipodi:cx="305.77121"
         id="path3009"
         style="fill:#9c6000;fill-opacity:1;fill-rule:evenodd;stroke:#000000;stroke-width:1;stroke-miterlimit:4;stroke-opacity:0.57317074;stroke-dasharray:none"
         sodipodi:type="arc" />
      <path
         transform="translate(1.6846898,-2.2462531)"
         d="m 281.90477,433.51947 c 0,3.10143 -2.76563,5.61563 -6.1772,5.61563 -3.41157,0 -6.1772,-2.5142 -6.1772,-5.61563 0,-3.10143 2.76563,-5.61563 6.1772,-5.61563 3.41157,0 6.1772,2.5142 6.1772,5.61563 z"
         sodipodi:ry="5.6156325"
         sodipodi:rx="6.177196"
         sodipodi:cy="433.51947"
         sodipodi:cx="275.72757"
         id="path3011"
         style="fill:#9c6000;fill-opacity:1;fill-rule:evenodd;stroke:#000000;stroke-width:1;stroke-miterlimit:4;stroke-opacity:0.57317074;stroke-dasharray:none"
         sodipodi:type="arc" />
      <path
         d="m 281.90477,433.51947 c 0,3.10143 -2.76563,5.61563 -6.1772,5.61563 -3.41157,0 -6.1772,-2.5142 -6.1772,-5.61563 0,-3.10143 2.76563,-5.61563 6.1772,-5.61563 3.41157,0 6.1772,2.5142 6.1772,5.61563 z"
         sodipodi:ry="5.6156325"
         sodipodi:rx="6.177196"
         sodipodi:cy="433.51947"
         sodipodi:cx="275.72757"
         id="path3011-7"
         style="fill:#9c6000;fill-opacity:1;fill-rule:evenodd;stroke:#000000;stroke-width:1;stroke-miterlimit:4;stroke-opacity:0.57317074;stroke-dasharray:none"
         sodipodi:type="arc"
         transform="translate(57.27945,-1.684702)" />
    </g>
    <g
       id="g3112"
       transform="translate(-20.216278,14.600645)">
      <path
         d="m 244.28002,373.1514 c 0,15.66221 -7.54261,28.35894 -16.8469,28.35894 -9.30428,0 -16.8469,-12.69673 -16.8469,-28.35894 0,-15.66222 7.54262,-28.35895 16.8469,-28.35895 9.30429,0 16.8469,12.69673 16.8469,28.35895 z"
         sodipodi:ry="28.358946"
         sodipodi:rx="16.846899"
         sodipodi:cy="373.1514"
         sodipodi:cx="227.43312"
         id="path3033-4"
         style="fill:#9c6000;fill-opacity:1;fill-rule:evenodd;stroke:#000000;stroke-width:1;stroke-miterlimit:4;stroke-opacity:0.57317074;stroke-dasharray:none"
         sodipodi:type="arc"
         transform="translate(143.19864,-2.5270254)" />
      <path
         d="m 281.90477,433.51947 c 0,3.10143 -2.76563,5.61563 -6.1772,5.61563 -3.41157,0 -6.1772,-2.5142 -6.1772,-5.61563 0,-3.10143 2.76563,-5.61563 6.1772,-5.61563 3.41157,0 6.1772,2.5142 6.1772,5.61563 z"
         sodipodi:ry="5.6156325"
         sodipodi:rx="6.177196"
         sodipodi:cy="433.51947"
         sodipodi:cx="275.72757"
         id="path3011-7-0"
         style="fill:#9c6000;fill-opacity:1;fill-rule:evenodd;stroke:#000000;stroke-width:1;stroke-miterlimit:4;stroke-opacity:0.57317074;stroke-dasharray:none"
         sodipodi:type="arc"
         transform="translate(95.465753,-61.771972)" />
    </g>
    <g
       id="g3108"
       transform="translate(28.078164,12.354392)">
      <path
         d="m 244.28002,373.1514 c 0,15.66221 -7.54261,28.35894 -16.8469,28.35894 -9.30428,0 -16.8469,-12.69673 -16.8469,-28.35894 0,-15.66222 7.54262,-28.35895 16.8469,-28.35895 9.30429,0 16.8469,12.69673 16.8469,28.35895 z"
         sodipodi:ry="28.358946"
         sodipodi:rx="16.846899"
         sodipodi:cy="373.1514"
         sodipodi:cx="227.43312"
         id="path3033"
         style="fill:#9c6000;fill-opacity:1;fill-rule:evenodd;stroke:#000000;stroke-width:1;stroke-miterlimit:4;stroke-opacity:0.57317074;stroke-dasharray:none"
         sodipodi:type="arc" />
      <path
         d="m 281.90477,433.51947 c 0,3.10143 -2.76563,5.61563 -6.1772,5.61563 -3.41157,0 -6.1772,-2.5142 -6.1772,-5.61563 0,-3.10143 2.76563,-5.61563 6.1772,-5.61563 3.41157,0 6.1772,2.5142 6.1772,5.61563 z"
         sodipodi:ry="5.6156325"
         sodipodi:rx="6.177196"
         sodipodi:cy="433.51947"
         sodipodi:cx="275.72757"
         id="path3011-7-9"
         style="fill:#9c6000;fill-opacity:1;fill-rule:evenodd;stroke:#000000;stroke-width:1;stroke-miterlimit:4;stroke-opacity:0.57317074;stroke-dasharray:none"
         sodipodi:type="arc"
         transform="translate(-48.856008,-60.648846)" />
    </g>
    <path
       sodipodi:type="arc"
       style="fill:#9c6000;fill-opacity:1;fill-rule:evenodd;stroke:#000000;stroke-width:1;stroke-miterlimit:4;stroke-opacity:0.57317074;stroke-dasharray:none"
       id="path3078"
       sodipodi:cx="428.19199"
       sodipodi:cy="308.29086"
       sodipodi:rx="21.620186"
       sodipodi:ry="19.093151"
       d="m 449.81217,308.29086 a 21.620186,19.093151 0 1 1 -43.24037,0 21.620186,19.093151 0 1 1 43.24037,0 z"
       transform="translate(-7.3003225,12.354392)" />
    <path
       transform="translate(-249.61487,19.6547)"
       sodipodi:type="arc"
       style="fill:#9c6000;fill-opacity:1;fill-rule:evenodd;stroke:#000000;stroke-width:1;stroke-miterlimit:4;stroke-opacity:0.57317074;stroke-dasharray:none"
       id="path3078-4"
       sodipodi:cx="428.19199"
       sodipodi:cy="308.29086"
       sodipodi:rx="21.620186"
       sodipodi:ry="19.093151"
       d="m 449.81217,308.29086 a 21.620186,19.093151 0 1 1 -43.24037,0 21.620186,19.093151 0 1 1 43.24037,0 z" />
    <rect
       style="fill:#9c6000;fill-opacity:1;fill-rule:evenodd;stroke:#000000;stroke-width:1;stroke-miterlimit:4;stroke-opacity:0.57317074;stroke-dasharray:none"
       id="rect3098"
       width="7.861886"
       height="34.25536"
       x="297.62854"
       y="293.69019" />
  </g>
</svg>
